<svg width="347" height="347" viewBox="0 0 347 347" fill="none" xmlns="http://www.w3.org/2000/svg">
<path d="M79.3242 269.445H245.884" stroke="#4E5A7D" stroke-width="6" stroke-miterlimit="10" stroke-linecap="round" stroke-linejoin="round"/>
<path d="M255.253 269.445H272.395" stroke="#4E5A7D" stroke-width="6" stroke-miterlimit="10" stroke-linecap="round" stroke-linejoin="round"/>
<path d="M60.4127 269.445H72.4536" stroke="#4E5A7D" stroke-width="6" stroke-miterlimit="10" stroke-linecap="round" stroke-linejoin="round"/>
<path d="M278.433 269.445H281.417" stroke="#4E5A7D" stroke-width="6" stroke-miterlimit="10" stroke-linecap="round" stroke-linejoin="round"/>
<path d="M177.456 157.226H169.058C168.642 157.226 168.33 156.879 168.33 156.497V138.8C168.33 138.384 168.677 138.071 169.058 138.071H177.456C177.872 138.071 178.185 138.418 178.185 138.8V156.497C178.185 156.879 177.872 157.226 177.456 157.226Z" fill="#4E5A7D"/>
<path d="M177.456 157.226H169.058C168.642 157.226 168.33 156.879 168.33 156.497V138.8C168.33 138.384 168.677 138.071 169.058 138.071H177.456C177.872 138.071 178.185 138.418 178.185 138.8V156.497C178.185 156.879 177.872 157.226 177.456 157.226Z" stroke="#4E5A7D" stroke-width="6" stroke-miterlimit="10" stroke-linecap="round" stroke-linejoin="round"/>
<path d="M188.421 145.775H158.093C154.831 145.775 152.16 143.137 152.16 139.841V136.267C152.16 133.005 154.797 130.333 158.093 130.333H188.421C191.683 130.333 194.355 132.97 194.355 136.267V139.841C194.32 143.103 191.683 145.775 188.421 145.775Z" fill="#BCAFAA"/>
<path d="M188.421 142.548H158.093C154.831 142.548 152.16 139.91 152.16 136.614V139.841C152.16 143.103 154.797 145.775 158.093 145.775H188.421C191.683 145.775 194.355 143.138 194.355 139.841V136.614C194.32 139.91 191.683 142.548 188.421 142.548Z" fill="#A09592"/>
<path d="M188.421 130.368H158.093C154.831 130.368 152.16 133.005 152.16 136.302V139.841C152.16 139.91 152.16 139.945 152.16 140.015C152.264 136.822 154.866 134.289 158.059 134.289H188.421C191.613 134.289 194.216 136.857 194.32 140.015C194.32 139.945 194.32 139.91 194.32 139.841V136.267C194.32 133.005 191.683 130.368 188.421 130.368Z" fill="#D1CAC7"/>
<path d="M188.421 145.775H158.093C154.831 145.775 152.16 143.137 152.16 139.841V136.267C152.16 133.005 154.797 130.333 158.093 130.333H188.421C191.683 130.333 194.355 132.97 194.355 136.267V139.841C194.32 143.103 191.683 145.775 188.421 145.775Z" stroke="#4E5A7D" stroke-width="6" stroke-miterlimit="10" stroke-linecap="round" stroke-linejoin="round"/>
<path d="M206.916 157.794L201.506 154.671L195.954 164.287L201.364 167.41L206.916 157.794Z" fill="#4E5A7D"/>
<path d="M206.916 157.794L201.506 154.671L195.954 164.287L201.364 167.41L206.916 157.794Z" stroke="#4E5A7D" stroke-width="6" stroke-miterlimit="10" stroke-linecap="round" stroke-linejoin="round"/>
<path d="M208.2 158.544L200.219 153.929C198.553 152.958 197.998 150.876 198.97 149.21L199.247 148.724C200.219 147.059 202.301 146.503 203.967 147.475L211.948 152.09C213.613 153.062 214.168 155.144 213.197 156.809L212.919 157.295C211.982 158.926 209.866 159.516 208.2 158.544Z" fill="#E08484"/>
<path d="M208.2 158.544L200.219 153.929C198.553 152.958 197.998 150.876 198.97 149.21L199.247 148.724C200.219 147.059 202.301 146.503 203.967 147.475L211.948 152.09C213.613 153.062 214.168 155.144 213.197 156.809L212.919 157.295C211.982 158.926 209.866 159.516 208.2 158.544Z" fill="#E08484"/>
<path d="M198.588 151.049L198.866 150.563C199.837 148.898 201.919 148.342 203.585 149.314L211.566 153.929C212.503 154.484 213.093 155.387 213.266 156.358C214.134 154.727 213.578 152.645 211.948 151.708L203.967 147.093C202.301 146.122 200.184 146.711 199.247 148.342L198.97 148.828C198.553 149.557 198.415 150.355 198.553 151.118C198.553 151.118 198.553 151.084 198.588 151.049Z" fill="#E99697"/>
<path d="M208.2 158.544L200.219 153.929C198.553 152.958 197.998 150.876 198.97 149.21L199.247 148.724C200.219 147.059 202.301 146.503 203.967 147.475L211.948 152.09C213.613 153.062 214.168 155.144 213.197 156.809L212.919 157.295C211.982 158.926 209.866 159.516 208.2 158.544Z" stroke="#4E5A7D" stroke-width="6" stroke-miterlimit="10" stroke-linecap="round" stroke-linejoin="round"/>
<path d="M145.649 167.441L151.058 164.318L145.506 154.702L140.097 157.825L145.649 167.441Z" fill="#4E5A7D"/>
<path d="M145.649 167.441L151.058 164.318L145.506 154.702L140.097 157.825L145.649 167.441Z" stroke="#4E5A7D" stroke-width="6" stroke-miterlimit="10" stroke-linecap="round" stroke-linejoin="round"/>
<path d="M138.801 158.544L146.782 153.929C148.447 152.958 149.002 150.876 148.031 149.21L147.753 148.724C146.782 147.059 144.7 146.503 143.034 147.475L135.053 152.09C133.387 153.062 132.832 155.144 133.804 156.809L134.081 157.295C135.018 158.926 137.135 159.516 138.801 158.544Z" fill="#E08484"/>
<path d="M138.801 158.544L146.782 153.929C148.447 152.958 149.002 150.876 148.031 149.21L147.753 148.724C146.782 147.059 144.7 146.503 143.034 147.475L135.053 152.09C133.387 153.062 132.832 155.144 133.804 156.809L134.081 157.295C135.018 158.926 137.135 159.516 138.801 158.544Z" fill="#E08484"/>
<path d="M135.191 154.276L143.172 149.661C144.838 148.689 146.954 149.279 147.891 150.91L148.169 151.396C148.238 151.535 148.308 151.708 148.377 151.847C148.62 150.98 148.516 150.043 148.03 149.21L147.753 148.724C146.781 147.059 144.699 146.503 143.033 147.475L135.052 152.09C133.56 152.958 132.936 154.797 133.56 156.358C133.803 155.525 134.358 154.762 135.191 154.276Z" fill="#E99697"/>
<path d="M138.801 158.544L146.782 153.929C148.447 152.958 149.002 150.876 148.031 149.21L147.753 148.724C146.782 147.059 144.7 146.503 143.034 147.475L135.053 152.09C133.387 153.062 132.832 155.144 133.804 156.809L134.081 157.295C135.018 158.926 137.135 159.516 138.801 158.544Z" stroke="#4E5A7D" stroke-width="6" stroke-miterlimit="10" stroke-linecap="round" stroke-linejoin="round"/>
<path d="M188.803 130.472V145.775" stroke="#4E5A7D" stroke-width="6" stroke-miterlimit="10" stroke-linecap="round" stroke-linejoin="round"/>
<path d="M182.557 130.472V145.775" stroke="#4E5A7D" stroke-width="6" stroke-miterlimit="10" stroke-linecap="round" stroke-linejoin="round"/>
<path d="M176.311 130.472V145.775" stroke="#4E5A7D" stroke-width="6" stroke-miterlimit="10" stroke-linecap="round" stroke-linejoin="round"/>
<path d="M170.065 130.472V145.775" stroke="#4E5A7D" stroke-width="6" stroke-miterlimit="10" stroke-linecap="round" stroke-linejoin="round"/>
<path d="M163.819 130.472V145.775" stroke="#4E5A7D" stroke-width="6" stroke-miterlimit="10" stroke-linecap="round" stroke-linejoin="round"/>
<path d="M157.573 130.472V145.775" stroke="#4E5A7D" stroke-width="6" stroke-miterlimit="10" stroke-linecap="round" stroke-linejoin="round"/>
<path d="M173.257 269.445C205.204 269.445 231.102 243.547 231.102 211.6C231.102 179.654 205.204 153.756 173.257 153.756C141.31 153.756 115.412 179.654 115.412 211.6C115.412 243.547 141.31 269.445 173.257 269.445Z" fill="#E08484"/>
<path d="M173.257 264.83C142.096 264.83 116.696 240.193 115.482 209.31C115.447 210.074 115.447 210.837 115.447 211.635C115.447 243.594 141.333 269.48 173.292 269.48C205.25 269.48 231.137 243.594 231.137 211.635C231.137 210.872 231.102 210.074 231.102 209.31C229.818 240.159 204.418 264.83 173.257 264.83Z" fill="#D87171"/>
<path d="M173.257 157.538C204.556 157.538 230.061 182.418 231.067 213.509C231.102 212.885 231.102 212.26 231.102 211.635C231.102 179.677 205.216 153.79 173.257 153.79C141.298 153.79 115.412 179.677 115.412 211.635C115.412 212.26 115.412 212.885 115.447 213.509C116.453 182.418 141.923 157.538 173.257 157.538Z" fill="#E99697"/>
<path d="M173.257 257.335C198.516 257.335 218.992 236.859 218.992 211.601C218.992 186.342 198.516 165.866 173.257 165.866C147.999 165.866 127.522 186.342 127.522 211.601C127.522 236.859 147.999 257.335 173.257 257.335Z" fill="#FBE3D5"/>
<path d="M173.257 251.679C148.967 251.679 129.084 232.733 127.627 208.79C127.557 209.727 127.522 210.664 127.522 211.601C127.522 236.862 147.995 257.335 173.257 257.335C198.519 257.335 218.992 236.862 218.992 211.601C218.992 210.664 218.957 209.727 218.888 208.79C217.43 232.733 197.547 251.679 173.257 251.679Z" fill="#FFF4EE"/>
<path d="M173.257 171.73C197.512 171.73 217.361 190.642 218.888 214.515C218.957 213.544 218.992 212.572 218.992 211.601C218.992 186.339 198.519 165.866 173.257 165.866C147.995 165.866 127.522 186.339 127.522 211.601C127.522 212.572 127.557 213.544 127.627 214.515C129.153 190.642 149.002 171.73 173.257 171.73Z" fill="#F9D1BD"/>
<path d="M173.5 210.664V227.875" stroke="#4E5A7D" stroke-width="13" stroke-miterlimit="10" stroke-linecap="round" stroke-linejoin="round"/>
<path d="M173.5 210.664V185.125" stroke="#4E5A7D" stroke-width="13" stroke-miterlimit="10" stroke-linecap="round" stroke-linejoin="round"/>
<path d="M173.257 257.335C198.516 257.335 218.992 236.859 218.992 211.601C218.992 186.342 198.516 165.866 173.257 165.866C147.999 165.866 127.522 186.342 127.522 211.601C127.522 236.859 147.999 257.335 173.257 257.335Z" stroke="#4E5A7D" stroke-width="6" stroke-miterlimit="10" stroke-linecap="round" stroke-linejoin="round"/>
<path d="M173.5 167.219V176.276" stroke="#4E5A7D" stroke-width="10" stroke-miterlimit="10" stroke-linecap="round" stroke-linejoin="round"/>
<path d="M173.5 246.96V256.017" stroke="#4E5A7D" stroke-width="10" stroke-miterlimit="10" stroke-linecap="round" stroke-linejoin="round"/>
<path d="M217.881 211.601H208.859" stroke="#4E5A7D" stroke-width="10" stroke-miterlimit="10" stroke-linecap="round" stroke-linejoin="round"/>
<path d="M138.141 211.601H129.119" stroke="#4E5A7D" stroke-width="10" stroke-miterlimit="10" stroke-linecap="round" stroke-linejoin="round"/>
<path d="M205.702 179.399L202.336 182.8" stroke="#4E5A7D" stroke-width="6" stroke-miterlimit="10" stroke-linecap="round" stroke-linejoin="round"/>
<path d="M144.664 240.436L141.056 244.08" stroke="#4E5A7D" stroke-width="6" stroke-miterlimit="10" stroke-linecap="round" stroke-linejoin="round"/>
<path d="M205.702 243.802L202.336 240.436" stroke="#4E5A7D" stroke-width="6" stroke-miterlimit="10" stroke-linecap="round" stroke-linejoin="round"/>
<path d="M144.664 182.8L141.056 179.156" stroke="#4E5A7D" stroke-width="6" stroke-miterlimit="10" stroke-linecap="round" stroke-linejoin="round"/>
<path d="M173.5 215.348C176.087 215.348 178.184 213.251 178.184 210.664C178.184 208.076 176.087 205.979 173.5 205.979C170.913 205.979 168.815 208.076 168.815 210.664C168.815 213.251 170.913 215.348 173.5 215.348Z" fill="#FBE3D5"/>
<path d="M173.5 215.348C176.087 215.348 178.184 213.251 178.184 210.664C178.184 208.076 176.087 205.979 173.5 205.979C170.913 205.979 168.815 208.076 168.815 210.664C168.815 213.251 170.913 215.348 173.5 215.348Z" stroke="#4E5A7D" stroke-width="9" stroke-miterlimit="10" stroke-linecap="round" stroke-linejoin="round"/>
<path d="M173.5 231.102C175.282 231.102 176.727 229.657 176.727 227.875C176.727 226.093 175.282 224.648 173.5 224.648C171.718 224.648 170.273 226.093 170.273 227.875C170.273 229.657 171.718 231.102 173.5 231.102Z" fill="#FBE3D5"/>
<path d="M173.5 231.102C175.282 231.102 176.727 229.657 176.727 227.875C176.727 226.093 175.282 224.648 173.5 224.648C171.718 224.648 170.273 226.093 170.273 227.875C170.273 229.657 171.718 231.102 173.5 231.102Z" stroke="#4E5A7D" stroke-width="6" stroke-miterlimit="10" stroke-linecap="round" stroke-linejoin="round"/>
<path d="M173.257 269.445C205.204 269.445 231.102 243.547 231.102 211.6C231.102 179.654 205.204 153.756 173.257 153.756C141.31 153.756 115.412 179.654 115.412 211.6C115.412 243.547 141.31 269.445 173.257 269.445Z" stroke="#4E5A7D" stroke-width="6" stroke-miterlimit="10" stroke-linecap="round" stroke-linejoin="round"/>
<path d="M180.579 98.5826C171.8 99.4154 162.951 99.4154 154.172 98.5826C150.771 98.2703 148.03 96.223 147.44 93.5164C145.913 86.4376 145.913 79.6711 147.44 72.5923C148.03 69.9204 150.771 67.8731 154.172 67.5261C162.951 66.6933 171.8 66.6933 180.579 67.5261C183.979 67.8384 186.721 69.8857 187.311 72.5923C188.837 79.6711 188.837 86.4376 187.311 93.5164C186.755 96.223 183.979 98.2703 180.579 98.5826Z" fill="white"/>
<path d="M180.579 98.5826C171.8 99.4154 162.951 99.4154 154.172 98.5826C150.771 98.2703 148.03 96.223 147.44 93.5164C145.913 86.4376 145.913 79.6711 147.44 72.5923C148.03 69.9204 150.771 67.8731 154.172 67.5261C162.951 66.6933 171.8 66.6933 180.579 67.5261C183.979 67.8384 186.721 69.8857 187.311 72.5923C188.837 79.6711 188.837 86.4376 187.311 93.5164C186.755 96.223 183.979 98.2703 180.579 98.5826Z" stroke="#4E5A7D" stroke-width="6" stroke-miterlimit="10" stroke-linecap="round" stroke-linejoin="round"/>
<path d="M165.727 76.3746L174.472 81.0938C176.103 81.996 176.103 84.1821 174.472 85.0843L165.727 89.8035C164.096 90.7057 162.049 89.5953 162.049 87.8256V78.3872C162.014 76.5828 164.096 75.4724 165.727 76.3746Z" stroke="#4E5A7D" stroke-width="6" stroke-miterlimit="10" stroke-linecap="round" stroke-linejoin="round"/>
<path d="M81.8573 172.043C81.8573 172.043 66.2076 174.437 63.6051 171.8C59.337 167.497 66.5893 165.727 66.0688 161.598C64.9584 152.958 65.4789 143.242 68.9142 138.904C68.9489 138.87 68.9836 138.835 69.0183 138.765C73.1476 133.665 80.7122 132.693 85.9866 136.614C86.0213 136.649 86.0907 136.683 86.1254 136.718C90.5323 140.084 93.4471 149.349 94.5575 157.989C95.078 162.119 102.539 162.049 99.4849 167.254C97.6111 170.447 81.8573 172.043 81.8573 172.043Z" fill="white"/>
<path d="M81.8573 172.043C81.8573 172.043 66.2076 174.437 63.6051 171.8C59.337 167.497 66.5893 165.727 66.0688 161.598C64.9584 152.958 65.4789 143.242 68.9142 138.904C68.9489 138.87 68.9836 138.835 69.0183 138.765C73.1476 133.665 80.7122 132.693 85.9866 136.614C86.0213 136.649 86.0907 136.683 86.1254 136.718C90.5323 140.084 93.4471 149.349 94.5575 157.989C95.078 162.119 102.539 162.049 99.4849 167.254C97.6111 170.447 81.8573 172.043 81.8573 172.043Z" stroke="#4E5A7D" stroke-width="6" stroke-miterlimit="10" stroke-linecap="round" stroke-linejoin="round"/>
<path d="M89.4219 158.822C89.7342 161.216 90.8099 162.986 92.0244 164.305" stroke="#4E5A7D" stroke-width="4" stroke-miterlimit="10" stroke-linecap="round" stroke-linejoin="round"/>
<path d="M83.3494 141.715L83.4188 141.784C85.1538 143.103 87.4093 147.926 88.7626 154.762" stroke="#4E5A7D" stroke-width="4" stroke-miterlimit="10" stroke-linecap="round" stroke-linejoin="round"/>
<path d="M86.5419 171.453C86.8542 173.986 85.0151 176.311 82.4473 176.623C79.8795 176.935 77.5199 175.166 77.1729 172.633L86.5419 171.453Z" fill="white"/>
<path d="M86.5419 171.453C86.8542 173.986 85.0151 176.311 82.4473 176.623C79.8795 176.935 77.5199 175.166 77.1729 172.633L86.5419 171.453Z" stroke="#4E5A7D" stroke-width="6" stroke-miterlimit="10" stroke-linecap="round" stroke-linejoin="round"/>
<path d="M100.318 158.405L102.851 157.399" stroke="white" stroke-width="2" stroke-miterlimit="10" stroke-linecap="round" stroke-linejoin="round"/>
<path d="M97.9581 156.844L98.8603 153.895" stroke="white" stroke-width="2" stroke-miterlimit="10" stroke-linecap="round" stroke-linejoin="round"/>
<path d="M99.1379 157.399L101.74 154.45" stroke="white" stroke-width="2" stroke-miterlimit="10" stroke-linecap="round" stroke-linejoin="round"/>
<path d="M188.352 66.8323L191.336 65.6178" stroke="white" stroke-width="2" stroke-miterlimit="10" stroke-linecap="round" stroke-linejoin="round"/>
<path d="M185.645 64.9932L186.651 61.5579" stroke="white" stroke-width="2" stroke-miterlimit="10" stroke-linecap="round" stroke-linejoin="round"/>
<path d="M186.998 65.6178L190.017 62.2172" stroke="white" stroke-width="2" stroke-miterlimit="10" stroke-linecap="round" stroke-linejoin="round"/>
<path d="M278.398 127.037L281.348 125.857" stroke="white" stroke-width="2" stroke-miterlimit="10" stroke-linecap="round" stroke-linejoin="round"/>
<path d="M275.657 125.232L276.698 121.762" stroke="white" stroke-width="2" stroke-miterlimit="10" stroke-linecap="round" stroke-linejoin="round"/>
<path d="M277.045 125.857L280.064 122.422" stroke="white" stroke-width="2" stroke-miterlimit="10" stroke-linecap="round" stroke-linejoin="round"/>
<path d="M61.3496 163.541L60.6903 160.8" stroke="white" stroke-width="2" stroke-miterlimit="10" stroke-linecap="round" stroke-linejoin="round"/>
<path d="M59.3717 165.727L55.7976 165.033" stroke="white" stroke-width="2" stroke-miterlimit="10" stroke-linecap="round" stroke-linejoin="round"/>
<path d="M60.1004 164.582L57.4979 161.494" stroke="white" stroke-width="2" stroke-miterlimit="10" stroke-linecap="round" stroke-linejoin="round"/>
<path d="M270.868 162.951C261.811 163.367 252.72 163.367 243.629 162.951C240.471 162.812 237.938 160.21 237.938 157.052V136.718C237.938 133.525 240.436 130.958 243.629 130.819C252.685 130.402 261.777 130.402 270.868 130.819C274.026 130.958 276.559 133.56 276.559 136.718V157.052C276.559 160.21 274.026 162.812 270.868 162.951Z" fill="white"/>
<path d="M270.868 162.951C261.811 163.367 252.72 163.367 243.629 162.951C240.471 162.812 237.938 160.21 237.938 157.052V136.718C237.938 133.525 240.436 130.958 243.629 130.819C252.685 130.402 261.777 130.402 270.868 130.819C274.026 130.958 276.559 133.56 276.559 136.718V157.052C276.559 160.21 274.026 162.812 270.868 162.951Z" stroke="#4E5A7D" stroke-width="6" stroke-miterlimit="10" stroke-linecap="round" stroke-linejoin="round"/>
<path d="M243.212 153.131L251.471 142.478L261.256 149.522L271.076 140.188" stroke="#4E5A7D" stroke-width="6" stroke-miterlimit="10" stroke-linecap="round" stroke-linejoin="round"/>
<path d="M243.212 155.421C244.343 155.421 245.26 154.505 245.26 153.374C245.26 152.243 244.343 151.327 243.212 151.327C242.082 151.327 241.165 152.243 241.165 153.374C241.165 154.505 242.082 155.421 243.212 155.421Z" fill="white"/>
<path d="M243.212 155.421C244.343 155.421 245.26 154.505 245.26 153.374C245.26 152.243 244.343 151.327 243.212 151.327C242.082 151.327 241.165 152.243 241.165 153.374C241.165 154.505 242.082 155.421 243.212 155.421Z" stroke="#4E5A7D" stroke-width="6" stroke-miterlimit="10" stroke-linecap="round" stroke-linejoin="round"/>
<path d="M251.644 144.838C252.928 144.838 253.969 143.797 253.969 142.513C253.969 141.229 252.928 140.188 251.644 140.188C250.36 140.188 249.32 141.229 249.32 142.513C249.32 143.797 250.36 144.838 251.644 144.838Z" fill="white"/>
<path d="M251.644 144.838C252.928 144.838 253.969 143.797 253.969 142.513C253.969 141.229 252.928 140.188 251.644 140.188C250.36 140.188 249.32 141.229 249.32 142.513C249.32 143.797 250.36 144.838 251.644 144.838Z" stroke="#4E5A7D" stroke-width="6" stroke-miterlimit="10" stroke-linecap="round" stroke-linejoin="round"/>
<path d="M261.222 151.327C262.621 151.327 263.755 150.193 263.755 148.794C263.755 147.395 262.621 146.26 261.222 146.26C259.823 146.26 258.688 147.395 258.688 148.794C258.688 150.193 259.823 151.327 261.222 151.327Z" fill="white"/>
<path d="M261.222 151.327C262.621 151.327 263.755 150.193 263.755 148.794C263.755 147.395 262.621 146.26 261.222 146.26C259.823 146.26 258.688 147.395 258.688 148.794C258.688 150.193 259.823 151.327 261.222 151.327Z" stroke="#4E5A7D" stroke-width="6" stroke-miterlimit="10" stroke-linecap="round" stroke-linejoin="round"/>
<path d="M271.493 142.166C272.892 142.166 274.026 141.032 274.026 139.633C274.026 138.234 272.892 137.1 271.493 137.1C270.094 137.1 268.96 138.234 268.96 139.633C268.96 141.032 270.094 142.166 271.493 142.166Z" fill="white"/>
<path d="M271.493 142.166C272.892 142.166 274.026 141.032 274.026 139.633C274.026 138.234 272.892 137.1 271.493 137.1C270.094 137.1 268.96 138.234 268.96 139.633C268.96 141.032 270.094 142.166 271.493 142.166Z" stroke="#4E5A7D" stroke-width="6" stroke-miterlimit="10" stroke-linecap="round" stroke-linejoin="round"/>
<path d="M275.587 171.765C281.931 171.765 287.073 166.623 287.073 160.279C287.073 153.936 281.931 148.794 275.587 148.794C269.244 148.794 264.102 153.936 264.102 160.279C264.102 166.623 269.244 171.765 275.587 171.765Z" fill="white"/>
<path d="M275.587 171.765C281.931 171.765 287.073 166.623 287.073 160.279C287.073 153.936 281.931 148.794 275.587 148.794C269.244 148.794 264.102 153.936 264.102 160.279C264.102 166.623 269.244 171.765 275.587 171.765Z" fill="white"/>
<path d="M275.587 171.765C281.931 171.765 287.073 166.623 287.073 160.279C287.073 153.936 281.931 148.794 275.587 148.794C269.244 148.794 264.102 153.936 264.102 160.279C264.102 166.623 269.244 171.765 275.587 171.765Z" stroke="#4E5A7D" stroke-width="6" stroke-miterlimit="10" stroke-linecap="round" stroke-linejoin="round"/>
<path d="M280.341 153.756C282.354 155.213 283.638 157.573 283.638 160.244C283.638 164.686 280.029 168.295 275.587 168.295C271.146 168.295 267.537 164.721 267.537 160.279C267.537 159.585 267.641 158.891 267.815 158.232" stroke="#4E5A7D" stroke-width="5" stroke-miterlimit="10" stroke-linecap="round" stroke-linejoin="round"/>
<path d="M278.919 156.879C279.231 157.191 279.508 157.538 279.717 157.954C281.001 160.244 280.168 163.159 277.878 164.408C276.732 165.033 275.414 165.172 274.269 164.825" stroke="#4E5A7D" stroke-width="5" stroke-miterlimit="10" stroke-linecap="round" stroke-linejoin="round"/>
<path d="M105.662 222.809C96.1884 212.989 89.1443 201.191 85.3967 188.178" stroke="white" stroke-width="3" stroke-miterlimit="10" stroke-linecap="round" stroke-linejoin="round" stroke-dasharray="18 18"/>
<path d="M260.007 181.099C257.786 194.459 252.165 206.777 243.976 217.326" stroke="white" stroke-width="3" stroke-miterlimit="10" stroke-linecap="round" stroke-linejoin="round" stroke-dasharray="18 18"/>
<path d="M202.336 84.8415C224.023 90.7058 242.414 103.58 254.386 120.583" stroke="white" stroke-width="3" stroke-miterlimit="10" stroke-linecap="round" stroke-linejoin="round" stroke-dasharray="18 18"/>
<path d="M94.8698 127.037C103.406 110.415 118.153 96.9517 136.406 89.2136" stroke="white" stroke-width="3" stroke-miterlimit="10" stroke-linecap="round" stroke-linejoin="round" stroke-dasharray="18 18"/>
</svg>
